<svg xmlns="http://www.w3.org/2000/svg" viewBox="0 0 179.135 72.957">
  <defs>
    <style>.cls-1{fill:#ffffff;}.cls-2{fill:#c03;}</style>
  </defs>
  <g transform="translate(0.1 0.012)">
    <path class="cls-1" d="M111.438,1.6V9.258h-1.531l-.547-3.281a3.486,3.486,0,0,0-1.969-2.625,9.353,9.353,0,0,0-4.156-.875A5.476,5.476,0,0,0,99.08,4.337a6.479,6.479,0,0,0-1.64,4.484,4.487,4.487,0,0,0,1.094,3.171,7.958,7.958,0,0,0,2.406,1.969c.875.437,2.406,1.2,4.593,2.078a26.527,26.527,0,0,1,4.374,2.3,10.476,10.476,0,0,1,2.953,2.843,7.432,7.432,0,0,1,1.2,4.156,10.35,10.35,0,0,1-.875,4.046,9.478,9.478,0,0,1-2.515,3.39,11.172,11.172,0,0,1-3.828,2.3,13.919,13.919,0,0,1-4.812.875,30.168,30.168,0,0,1-5.906-.547A16.51,16.51,0,0,1,92.3,34.3v-8.64h1.531l.437,3.39a4.783,4.783,0,0,0,2.3,3.828,11.4,11.4,0,0,0,5.687,1.094,7.514,7.514,0,0,0,3.937-.984,6.1,6.1,0,0,0,2.515-2.734,7.891,7.891,0,0,0,.875-3.5,5.388,5.388,0,0,0-2.187-4.374,31.955,31.955,0,0,0-6.671-3.609A26.274,26.274,0,0,1,96.784,16.8,8.164,8.164,0,0,1,94.05,14.07,7.883,7.883,0,0,1,92.956,9.7a8.765,8.765,0,0,1,5.468-8.2A12.218,12.218,0,0,1,103.674.4c.875,0,1.859.109,2.843.109a22.131,22.131,0,0,1,2.843.437A8.5,8.5,0,0,0,111.438,1.6Z" transform="translate(8.65 0.038)"/>
    <path class="cls-1" d="M63.236,33.708a1.383,1.383,0,0,1-1.094-.766c-.219-.437-.656-1.75-1.422-3.937L54.05,9.321c-.328-.984-.656-2.078-1.094-3.171s-.656-1.969-.875-2.625S51.534,1.994,51.206.9H48.144L34.911,31.3a15.63,15.63,0,0,1-.984,1.969,1.162,1.162,0,0,1-2.078-.219c-.219-.437-.656-1.75-1.422-3.937L23.757,9.43c-.328-.984-.656-2.078-1.094-3.171s-.656-1.969-.875-2.625-.547-1.531-.875-2.625H17.851L4.618,31.3a15.629,15.629,0,0,1-.984,1.969,1.5,1.5,0,0,1-.875.547L.9,34.037v1.422H11.071V34.037l-2.515-.328a4.961,4.961,0,0,1-.875-.219,1.51,1.51,0,0,1-.437-.328c-.109-.109-.109-.328-.109-.656a4.509,4.509,0,0,1,.437-1.64l3.39-7.983H23.647c.984,2.843,1.75,5.031,2.187,6.452a14.029,14.029,0,0,1,.656,2.734,1.452,1.452,0,0,1-.328,1.094,2.466,2.466,0,0,1-1.312.547l-2.406.328v1.422H41.473V34.037l-2.515-.328a4.961,4.961,0,0,1-.875-.219,1.51,1.51,0,0,1-.437-.328c-.109-.109-.109-.328-.109-.656a4.509,4.509,0,0,1,.437-1.64l3.39-7.983H54.05c.984,2.843,1.75,5.031,2.187,6.452a14.029,14.029,0,0,1,.656,2.734,1.452,1.452,0,0,1-.328,1.094,2.466,2.466,0,0,1-1.312.547l-2.406.328v1.422H65.423V34.037ZM11.727,20.476,17.851,5.384c1.859,5.031,3.5,10.061,5.14,14.983H11.727Zm30.293,0L48.035,5.384c1.859,5.031,3.5,10.061,5.14,14.983H42.02Z" transform="translate(0.094 0.085)"/>
    <g transform="translate(62.581 -0.011)">
      <path class="cls-2" d="M59.219,10.39a17.218,17.218,0,0,1,27.887,7.655.109.109,0,1,0,.219,0A16.915,16.915,0,0,0,87.981,5.8h0a3.338,3.338,0,0,0-.547-.984l-.219-.219A17.942,17.942,0,0,0,65.671,2.735,19.331,19.331,0,0,0,59,10.281v.109C59.109,10.5,59.109,10.5,59.219,10.39Z" transform="translate(-57.048 0.011)"/>
      <path class="cls-2" d="M76.665,35.406A17.147,17.147,0,0,1,64.854,19.767,16.718,16.718,0,0,1,69.338,7.519V7.409L69.228,7.3a16.272,16.272,0,0,0-10.936,5.468h0a1.479,1.479,0,0,0-.547.984l-.109.328a17.831,17.831,0,0,0,9.186,19.576,17.211,17.211,0,0,0,9.843,1.969c.109,0,.109,0,.109-.109A.107.107,0,0,0,76.665,35.406Z" transform="translate(-57.215 0.696)"/>
      <path class="cls-2" d="M92.56,17.019A17.675,17.675,0,0,0,89.388,7.5s-.109-.109-.109,0l-.109.109a17.01,17.01,0,0,1-7.655,18.045,17.234,17.234,0,0,1-12.9,2.3H68.5v.109a16.38,16.38,0,0,0,10.171,6.78h0a1.708,1.708,0,0,0,1.094,0l.328-.109A17.85,17.85,0,0,0,92.56,17.019Z" transform="translate(-56.159 0.71)"/>
    </g>
    <path class="cls-2" d="M6.78,42.309a7.535,7.535,0,0,0,.328.875,7.535,7.535,0,0,1,.328.875c.109.328.219.766.328,1.094l2.3,6.671a3.966,3.966,0,0,0,.547,1.312.568.568,0,0,0,.437.219l.656.109V53.9H7.327v-.437l.766-.109a.568.568,0,0,0,.437-.219c.109.109.219,0,.219-.219,0-.109-.109-.437-.219-.984s-.437-1.2-.766-2.187H3.39L2.3,52.48a1.463,1.463,0,0,0-.109.547v.219l.109.109a.4.4,0,0,1,.328.109l.875.109v.437H0v-.437l.656-.109c.109,0,.219-.109.328-.219a1.781,1.781,0,0,0,.328-.656L5.8,42.2H6.78ZM5.8,43.84,3.718,48.98H7.546C7,47.231,6.452,45.59,5.8,43.84Z" transform="translate(0.009 3.952)"/>
    <path class="cls-2" d="M13.887,46.584v6.124a1.131,1.131,0,0,0,.109.437.4.4,0,0,0,.328.109l.766.109V53.8H11.7v-.437l.766-.109c.109,0,.219,0,.219-.109a.382.382,0,0,0,.109-.219,2.886,2.886,0,0,1,.109-.766c0-.219,0-1.094.109-2.406v-3.5c0-.109-.109-.109-.219-.109l-.766-.109V45.6h2.734l2.406,6.343L19.683,45.6h2.843v.437H21.98a.479.479,0,0,0-.328.109c-.109.109-.109.219-.109.437V52.6c0,.219,0,.328.109.437s.109.109.328.109l.875.109v.437H18.809v-.437l.766-.109a.568.568,0,0,0,.437-.219,17.241,17.241,0,0,0,.109-3.062,23.786,23.786,0,0,0-.109-2.843L17.277,53.8h-.656A70.453,70.453,0,0,0,13.887,46.584Z" transform="translate(1.105 4.27)"/>
    <path class="cls-2" d="M26.743,49.874v3.281l2.734-.109c.219,0,.328-.109.437-.109.109-.109.109-.219.219-.547l.328-.875.437.109-.437,2.187H23.9v-.437l.766-.109c.219,0,.328-.109.437-.328,0-.219.109-.656.109-1.422V49.546A21.239,21.239,0,0,0,25.1,47.14a6.045,6.045,0,0,0-.109-.984c0-.109-.109-.219-.328-.219h-.656V45.5h6.124v2.187H29.7l-.219-.766a.643.643,0,0,0-.219-.547c-.109-.109-.219-.109-.437-.109l-2.078-.109v3.171h1.312a2.225,2.225,0,0,0,.547-.109c.109-.109.109-.328.219-.547l.109-.656h.437V51.3h-.437l-.109-.656a.835.835,0,0,0-.219-.547c-.109-.109-.219-.109-.547-.109Z" transform="translate(2.247 4.261)"/>
    <path class="cls-2" d="M35.143,51.515v1.422a.382.382,0,0,0,.109.219c.109,0,.109.109.219.109l.766.109v.437H32.3v-.437l.766-.109c.219,0,.328-.109.437-.328a19.72,19.72,0,0,0,.109-3.281c0-.875,0-1.969-.109-3.062,0-.219,0-.328-.109-.437,0-.109-.109-.109-.328-.109l-.766-.109V45.5h3.828a6.454,6.454,0,0,1,1.531.219,2.269,2.269,0,0,1,1.094.656,1.965,1.965,0,0,1,.437.984,2.3,2.3,0,0,1-.547,1.422,3.377,3.377,0,0,1-1.531.766l2.515,3.281.328.328c.109,0,.219.109.328.109l.547.109v.437H38.643c-.328-.437-.656-.984-.984-1.422a18.556,18.556,0,0,1-1.094-1.531c-.437-.547-.766-.875-.984-1.2A3.26,3.26,0,0,0,37.331,49a1.811,1.811,0,0,0,.547-1.312,1.148,1.148,0,0,0-.547-.984,2.435,2.435,0,0,0-1.422-.437h-.656v5.249Z" transform="translate(3.033 4.261)"/>
    <path class="cls-2" d="M41.4,45.5h3.937v.437l-.766.109c-.109,0-.219.109-.328.109-.109.109-.109.219-.109.437v5.8c0,.219,0,.328.109.437a.387.387,0,0,0,.328.328l.875.109V53.7H41.4v-.437l.766-.109a.568.568,0,0,0,.437-.219,1.09,1.09,0,0,1,.109-.437,3.767,3.767,0,0,1,.109-.984v-1.64a25.758,25.758,0,0,0-.109-2.734,6.045,6.045,0,0,0-.109-.984c0-.109-.109-.219-.328-.219l-.766-.109V45.5Z" transform="translate(3.885 4.261)"/>
    <path class="cls-2" d="M54.009,45.719v2.3h-.437l-.219-1.094a.93.93,0,0,0-.328-.547,3.073,3.073,0,0,0-1.64-.328,2.686,2.686,0,0,0-1.64.547,2.986,2.986,0,0,0-.984,1.312,5.108,5.108,0,0,0-.328,1.859,5.54,5.54,0,0,0,.219,1.422,5.862,5.862,0,0,0,.547,1.2,2.8,2.8,0,0,0,2.3,1.2,4.079,4.079,0,0,0,1.312-.219.986.986,0,0,0,.656-.656l.547-1.312.437.109L54.118,53.7c-.328.109-.766.219-1.2.328a5.778,5.778,0,0,1-1.422.109,5.072,5.072,0,0,1-2.3-.437,3.77,3.77,0,0,1-1.422-1.094,3.389,3.389,0,0,1-.656-1.422,5.541,5.541,0,0,1-.219-1.422,4.166,4.166,0,0,1,.437-1.859,4.088,4.088,0,0,1,1.422-1.64,5.054,5.054,0,0,1,2.734-.766,5.325,5.325,0,0,1,1.312.109A2.062,2.062,0,0,1,54.009,45.719Z" transform="translate(4.4 4.261)"/>
  </g>
</svg>
