<?xml version="1.0" encoding="UTF-8"?>
<svg id="Capa_1" data-name="Capa 1" xmlns="http://www.w3.org/2000/svg" viewBox="0 0 1596.74 134.26">
  <defs><style>.cls-1{fill:#fff;stroke-width:0px;}</style></defs>
  <path class="cls-1" d="M15.95,113.3L.47,128.8c-1.01,1.02-.29,2.76,1.14,2.76h118.28c17.45,0,34.19-6.94,46.53-19.31l15.47-15.5c1.01-1.02.3-2.76-1.14-2.76H62.47c-17.45,0-34.19,6.94-46.53,19.31Z"/>
  <path class="cls-1" d="M73.89,19.4l-15.47,15.5c-1.01,1.02-.29,2.76,1.14,2.76h118.28c17.45,0,34.19-6.94,46.53-19.31l15.47-15.5c1.01-1.02.3-2.76-1.14-2.76h-118.28c-17.45,0-34.19,6.94-46.53,19.31Z"/>
  <path class="cls-1" d="M44.87,66.36l-15.47,15.5c-1.01,1.02-.29,2.76,1.14,2.76h118.28c17.45,0,34.19-6.94,46.53-19.31l15.47-15.5c1.02-1.02.3-2.76-1.14-2.76h-118.28c-17.45,0-34.19,6.94-46.53,19.31Z"/>
  <path class="cls-1" d="M296.57,0h88.25v17.36h-68.95v39.02h63.96v17.19h-63.96v40.63h69.32v17.36h-88.61V0h0Z"/>
  <path class="cls-1" d="M399.96,38.49h18.58v12.89c6.44-10.56,16.26-15.93,30.19-15.93,22.51,0,35.01,14.49,35.01,38.66v57.45h-18.58v-53.87c0-17-6.96-25.23-21.44-25.23-15.54,0-25.19,11.1-25.19,28.64v50.48h-18.58V38.49h0Z"/>
  <path class="cls-1" d="M494.89,85.02c0-27.92,18.76-49.58,46.99-49.58,15,0,26.26,6.08,33.59,15.21V0h18.58v131.56h-18.4v-12.71c-7.33,9.31-18.76,15.4-33.76,15.4-28.05,0-46.99-21.48-46.99-49.22ZM576.18,85.02c0-18.79-12.86-32.76-31.08-32.76s-31.08,14.14-31.08,32.76,12.15,32.22,31.08,32.22,31.08-13.61,31.08-32.22Z"/>
  <path class="cls-1" d="M607.54,85.22c0-28.64,19.47-49.76,46.27-49.76s44.48,19.51,44.48,47.97c0,2.33,0,4.66-.36,7.52h-70.92c1.97,18.61,13.58,27.39,28.4,27.39,13.75,0,22.69-5.55,27.86-17.36l13.75,11.99c-8.75,14.68-25.01,21.3-41.98,21.3-28.94,0-47.52-20.23-47.52-49.04h0ZM678.47,76.98v-.18c0-15.57-9.64-25.42-25.01-25.42-13.04,0-23.76,8.41-26.26,25.6h51.27Z"/>
  <path class="cls-1" d="M709.31,107.41c0-15.93,12.15-24.88,31.97-28.46,26.62-4.66,30.54-5.73,30.54-14.68,0-9.84-9.12-13.96-20.54-13.96-13.4,0-23.41,7.52-23.41,21.48l-16.79-6.45c2.5-17.72,18.94-29.89,40.2-29.89,23.94,0,38.77,11.1,38.77,31.68v46.54l3.04,17.9h-16.26l-4.11-11.82c-6.96,9.49-18.94,14.5-31.97,14.5-18.58,0-31.44-10.56-31.44-26.85h0ZM771.84,94.17v-9.13c-2.68,2.33-7.86,3.4-25.55,6.8-10.54,1.97-17.33,5.73-17.33,14.68,0,7.52,5.72,13.24,15.9,13.24,17.51,0,26.97-11.1,26.97-25.6h0Z"/>
  <path class="cls-1" d="M793.6,38.49h20.54l28.4,71.77,28.4-71.77h20.01l-38.58,93.08h-19.83l-38.95-93.08h0Z"/>
  <path class="cls-1" d="M889.85,84.85c0-29.18,21.62-49.4,49.84-49.4s50.2,20.23,50.2,49.4-21.79,49.4-50.2,49.4-49.84-20.23-49.84-49.4ZM970.6,84.85c0-19.69-12.86-32.39-30.91-32.39s-30.73,12.7-30.73,32.39,13.22,32.22,30.73,32.22,30.91-12.53,30.91-32.22Z"/>
  <path class="cls-1" d="M1000.93,38.48h18.58v15.75c7.15-14.32,18.94-17.72,28.05-17.72,2.86,0,4.65.18,7.33.9v18.79c-3.22-.9-6.07-1.43-9.47-1.43-15.19,0-25.9,9.49-25.9,31.68v45.11h-18.58V38.48Z"/>
  <path class="cls-1" d="M1177.68,74.82h-63.78v56.74h-19.29V0h19.29v57.64h63.78V0h19.3v131.56h-19.3v-56.74h0Z"/>
  <path class="cls-1" d="M1209.39,85.22c0-28.64,19.47-49.76,46.27-49.76s44.48,19.51,44.48,47.97c0,2.33,0,4.66-.35,7.52h-70.93c1.96,18.61,13.58,27.39,28.4,27.39,13.75,0,22.69-5.55,27.87-17.36l13.75,11.99c-8.75,14.68-25.01,21.3-41.99,21.3-28.94,0-47.52-20.23-47.52-49.04h.01ZM1280.31,76.98v-.18c0-15.57-9.64-25.42-25-25.42-13.04,0-23.77,8.41-26.27,25.6h51.27Z"/>
  <path class="cls-1" d="M1311.15,107.41c0-15.93,12.15-24.88,31.98-28.46,26.62-4.66,30.55-5.73,30.55-14.68,0-9.84-9.12-13.96-20.55-13.96-13.39,0-23.41,7.52-23.41,21.48l-16.78-6.45c2.5-17.72,18.94-29.89,40.19-29.89,23.94,0,38.77,11.1,38.77,31.68v46.54l3.04,17.9h-16.26l-4.11-11.82c-6.97,9.49-18.94,14.5-31.98,14.5-18.58,0-31.44-10.56-31.44-26.85h.01ZM1373.68,94.17v-9.13c-2.68,2.33-7.85,3.4-25.54,6.8-10.54,1.97-17.33,5.73-17.33,14.68,0,7.52,5.72,13.24,15.9,13.24,17.51,0,26.98-11.1,26.98-25.6h0Z"/>
  <path class="cls-1" d="M1410.35,0h18.58v131.56h-18.58V0Z"/>
  <path class="cls-1" d="M1456.33,105.25v-50.48h-16.61v-16.29h16.61v-20.76l18.58-14.14v34.9h26.45v16.29h-26.45v47.97c0,11.99,4.65,14.14,14.3,14.14,2.86,0,7.68-.54,10.54-1.25v16.47c-2.87,1.08-10.37,1.79-13.22,1.79-19.65,0-30.19-8.06-30.19-28.64h0Z"/>
  <path class="cls-1" d="M1512.97,0h18.58v51.19c5.71-9.49,15.18-15.75,30.19-15.75,22.52,0,35.01,14.49,35.01,38.66v57.45h-18.58v-53.87c0-17-6.96-25.23-21.43-25.23-15.54,0-25.19,10.56-25.19,28.64v50.48h-18.58V0h.01Z"/>
</svg>
