<svg width="380" height="620" viewBox="0 0 380 620" xmlns="http://www.w3.org/2000/svg">
  <defs>
    <linearGradient id="bg" x1="0%" y1="0%" x2="0%" y2="100%">
      <stop offset="0%" stop-color="#0b1a30"/>
      <stop offset="100%" stop-color="#0e2038"/>
    </linearGradient>
    <radialGradient id="glow" cx="50%" cy="50%" r="50%">
      <stop offset="0%" stop-color="#2f6fb0" stop-opacity="0.55"/>
      <stop offset="100%" stop-color="#0b1a30" stop-opacity="0"/>
    </radialGradient>
    <linearGradient id="bone" x1="0%" y1="0%" x2="100%" y2="100%">
      <stop offset="0%" stop-color="#f4efe6"/>
      <stop offset="100%" stop-color="#c9c2b4"/>
    </linearGradient>
  </defs>

  <rect width="380" height="620" fill="url(#bg)"/>
  <circle cx="190" cy="190" r="150" fill="url(#glow)"/>

  <text x="32" y="40" font-family="Arial, sans-serif" font-size="12" font-weight="700"
        letter-spacing="2" fill="#c9974a">HIP &amp; KNEE</text>

  <g transform="translate(0,20)">
    
  <g transform="translate(190,60)" fill="none" stroke="url(#bone)" stroke-width="5" stroke-linecap="round" stroke-linejoin="round">
    <rect x="-14" y="0" width="28" height="18" rx="4"/>
    <rect x="-14" y="22" width="28" height="18" rx="4"/>
    <rect x="-14" y="44" width="28" height="18" rx="4"/>
    <rect x="-14" y="66" width="28" height="18" rx="4"/>
  </g>
  <g transform="translate(190,150)" fill="none" stroke="url(#bone)" stroke-width="6" stroke-linecap="round" stroke-linejoin="round">
    <path d="M-75,-20 C-70,-55 -20,-70 0,-55 C20,-70 70,-55 75,-20 C80,10 55,35 25,30" />
    <path d="M-75,-20 C-85,15 -75,50 -50,65" />
    <circle cx="-45" cy="30" r="18" fill="#12233d" stroke="url(#bone)" stroke-width="5"/>
    <circle cx="40" cy="15" r="18" fill="#12233d" stroke="url(#bone)" stroke-width="5"/>
    <path d="M-50,48 C-52,80 -48,120 -44,150" />
    <path d="M-32,48 C-30,80 -32,120 -36,150" />
    <path d="M30,33 C28,80 32,120 36,150" />
    <path d="M50,33 C52,80 48,120 44,150" />
  </g>
  <circle cx="-45" cy="30" r="6" fill="#c9974a" opacity="0.9"/>
  <circle cx="40" cy="15" r="6" fill="#c9974a" opacity="0.9"/>

  </g>

  <text font-family="Georgia, 'Times New Roman', serif" font-size="22" font-weight="700" fill="#ffffff"><tspan x="32" y="355">Complex &amp; Revision</tspan><tspan x="32" y="383">Joint Replacement</tspan></text>

  <text font-family="Arial, sans-serif" font-size="14" fill="#9fb0c6"><tspan x="32" y="441">What sets complex primary and revision surgery</tspan><tspan x="32" y="461">apart, and how specialized expertise helps</tspan><tspan x="32" y="481">navigate challenging cases that require</tspan></text>

  <text x="32" y="526" font-family="Arial, sans-serif" font-size="12" font-weight="700" letter-spacing="1.5" fill="#c9974a">READ MORE  &#8594;</text>
</svg>