<svg width="380" height="620" viewBox="0 0 380 620" xmlns="http://www.w3.org/2000/svg">
  <defs>
    <linearGradient id="bg" x1="0%" y1="0%" x2="0%" y2="100%">
      <stop offset="0%" stop-color="#0b1a30"/>
      <stop offset="100%" stop-color="#0e2038"/>
    </linearGradient>
    <radialGradient id="glow" cx="50%" cy="50%" r="50%">
      <stop offset="0%" stop-color="#2f6fb0" stop-opacity="0.55"/>
      <stop offset="100%" stop-color="#0b1a30" stop-opacity="0"/>
    </radialGradient>
    <linearGradient id="bone" x1="0%" y1="0%" x2="100%" y2="100%">
      <stop offset="0%" stop-color="#f4efe6"/>
      <stop offset="100%" stop-color="#c9c2b4"/>
    </linearGradient>
  </defs>

  <rect width="380" height="620" fill="url(#bg)"/>
  <circle cx="190" cy="190" r="150" fill="url(#glow)"/>

  <text x="32" y="40" font-family="Arial, sans-serif" font-size="12" font-weight="700"
        letter-spacing="2" fill="#c9974a">KNEE · MINIMALLY INVASIVE</text>

  <g transform="translate(0,20)">
    
  <g transform="translate(190,180)" fill="none" stroke="url(#bone)" stroke-width="6" stroke-linecap="round" stroke-linejoin="round">
    <path d="M-18,-110 C-24,-95 -22,-70 -20,-50 C-18,-30 -26,-15 -20,0" />
    <path d="M18,-110 C24,-95 22,-70 20,-50 C18,-30 26,-15 20,0" />
    <ellipse cx="0" cy="-6" rx="34" ry="16" fill="#12233d" stroke="url(#bone)" stroke-width="5"/>
    <path d="M-24,10 C-30,40 -28,80 -22,120" />
    <path d="M24,10 C30,40 28,80 22,120" />
    <path d="M-10,120 C-8,130 8,130 10,120" />
  </g>
  <path d="M170,175 L210,205 M175,205 L205,175" stroke="#c0392b" stroke-width="5" stroke-linecap="round" opacity="0.85"/>
  <path d="M150,120 C165,150 170,170 175,185" stroke="#c9974a" stroke-width="2" stroke-dasharray="4 4" fill="none" opacity="0.7"/>

  </g>

  <text font-family="Georgia, 'Times New Roman', serif" font-size="22" font-weight="700" fill="#ffffff"><tspan x="32" y="355">Muscle/Tendon Sparing</tspan><tspan x="32" y="383">Subvastus Total Knee</tspan><tspan x="32" y="411">Replacement</tspan></text>

  <text font-family="Arial, sans-serif" font-size="14" fill="#9fb0c6"><tspan x="32" y="469">How working below the quadriceps tendon —</tspan><tspan x="32" y="489">instead of cutting through it — leads to less</tspan><tspan x="32" y="509">pain, faster early function, and a more</tspan></text>

  <text x="32" y="554" font-family="Arial, sans-serif" font-size="12" font-weight="700" letter-spacing="1.5" fill="#c9974a">READ MORE  &#8594;</text>
</svg>