<svg width="380" height="620" viewBox="0 0 380 620" xmlns="http://www.w3.org/2000/svg">
  <defs>
    <linearGradient id="bg" x1="0%" y1="0%" x2="0%" y2="100%">
      <stop offset="0%" stop-color="#0b1a30"/>
      <stop offset="100%" stop-color="#0e2038"/>
    </linearGradient>
    <radialGradient id="glow" cx="50%" cy="50%" r="50%">
      <stop offset="0%" stop-color="#2f6fb0" stop-opacity="0.55"/>
      <stop offset="100%" stop-color="#0b1a30" stop-opacity="0"/>
    </radialGradient>
    <linearGradient id="bone" x1="0%" y1="0%" x2="100%" y2="100%">
      <stop offset="0%" stop-color="#f4efe6"/>
      <stop offset="100%" stop-color="#c9c2b4"/>
    </linearGradient>
  </defs>

  <rect width="380" height="620" fill="url(#bg)"/>
  <circle cx="190" cy="190" r="150" fill="url(#glow)"/>

  <text x="32" y="40" font-family="Arial, sans-serif" font-size="12" font-weight="700"
        letter-spacing="2" fill="#c9974a">KNEE</text>

  <g transform="translate(0,20)">
    
  <g transform="translate(190,175)" fill="none" stroke="url(#bone)" stroke-width="6" stroke-linecap="round" stroke-linejoin="round">
    <path d="M-16,-110 C-22,-90 -20,-60 -18,-30" />
    <path d="M16,-110 C22,-90 20,-60 18,-30" />
    <path d="M-22,-30 C-28,10 -26,60 -20,110" />
    <path d="M22,-30 C28,10 26,60 20,110" />
    <path d="M-8,110 C-6,120 6,120 8,110" />
  </g>
  <g transform="translate(172,148)">
    <rect x="0" y="0" width="26" height="14" rx="3" fill="#dfe6ee" stroke="#9fb0c6" stroke-width="2"/>
    <rect x="2" y="14" width="22" height="8" rx="2" fill="#c9d3de" stroke="#9fb0c6" stroke-width="1.5"/>
  </g>

  </g>

  <text font-family="Georgia, 'Times New Roman', serif" font-size="22" font-weight="700" fill="#ffffff"><tspan x="32" y="355">Partial Knee</tspan><tspan x="32" y="383">Replacement</tspan></text>

  <text font-family="Arial, sans-serif" font-size="14" fill="#9fb0c6"><tspan x="32" y="441">Why resurfacing only the damaged compartment</tspan><tspan x="32" y="461">of the knee — and preserving healthy bone and</tspan><tspan x="32" y="481">ligaments — can mean a quicker recovery and a</tspan></text>

  <text x="32" y="526" font-family="Arial, sans-serif" font-size="12" font-weight="700" letter-spacing="1.5" fill="#c9974a">READ MORE  &#8594;</text>
</svg>